<svg version="1.1" id="Layer_1" xmlns="http://www.w3.org/2000/svg" xmlns:xlink="http://www.w3.org/1999/xlink" x="0px" y="0px"
	 width="100%" viewBox="0 0 1024 1024" enable-background="new 0 0 1024 1024" xml:space="preserve">
<path fill="#000000" opacity="1.000000" stroke="none" 
	d="
M362.640137,565.778870 
	C370.766571,560.531860 371.778564,552.383362 372.733612,544.187622 
	C373.098999,541.052063 372.147522,537.591797 374.682068,534.811157 
	C377.158356,536.034058 376.304749,538.129883 376.264160,539.753540 
	C376.064545,547.744690 375.588287,555.729492 375.432831,563.720825 
	C375.392853,565.774841 374.087280,569.065918 377.616577,569.374146 
	C380.793365,569.651611 384.110931,568.679993 385.343964,565.109497 
	C386.261841,562.451721 386.677582,559.645630 386.675293,556.765930 
	C386.644196,517.767273 386.674927,478.768585 386.641998,439.769958 
	C386.640198,437.623169 386.182587,435.479523 385.991608,433.329590 
	C385.552856,428.389557 382.543304,426.483643 377.929016,426.283905 
	C375.713043,426.187958 373.329010,426.760986 371.050079,425.205902 
	C371.983948,422.622528 373.978302,422.966583 375.639679,422.984436 
	C396.627014,423.209778 417.621582,422.310944 438.603485,423.667053 
	C457.552856,424.891754 470.746674,434.580658 474.572388,451.263916 
	C476.869965,461.283112 476.501953,471.450348 473.016571,481.271027 
	C469.887146,490.088593 463.609344,496.037964 455.262695,499.956879 
	C453.477081,500.795258 451.672760,501.593719 449.900787,502.399780 
	C449.995331,505.766937 452.023071,507.935150 453.296692,510.370941 
	C462.019897,527.054077 470.828674,543.692688 479.660126,560.318909 
	C480.750488,562.371765 482.050323,564.329773 483.410065,566.218750 
	C485.079163,568.537537 487.367462,569.838501 490.302765,569.249390 
	C493.583252,568.591064 496.154541,567.074158 497.114166,563.479004 
	C497.906921,560.508850 497.725983,557.521240 497.728821,554.539917 
	C497.764526,517.041260 497.759857,479.542542 497.757965,442.043854 
	C497.757874,439.877655 497.783875,437.705414 497.640900,435.546387 
	C497.199402,428.879547 494.539001,426.547791 487.839966,426.217102 
	C484.725952,426.063354 481.261688,427.457245 478.400757,424.888702 
	C479.478851,422.374268 481.559235,422.993195 483.237000,422.983887 
	C495.236176,422.917145 507.237030,423.036407 519.234863,422.891907 
	C523.063721,422.845764 524.756042,424.270874 525.697693,428.080627 
	C534.760376,464.746460 544.018311,501.364044 553.235352,537.991638 
	C553.841248,540.399475 554.570068,542.776306 556.066406,545.255615 
	C557.950195,537.906128 559.852661,530.561401 561.714600,523.206421 
	C569.679199,491.744629 577.723450,460.302368 585.483765,428.790192 
	C586.569824,424.380188 588.436646,422.777802 592.914734,422.874969 
	C603.909058,423.113495 614.912292,422.929962 625.911743,422.957458 
	C627.662964,422.961823 629.609497,422.558441 630.978821,424.519318 
	C629.664978,427.206726 627.227051,426.174164 625.304199,426.249359 
	C618.972046,426.496857 616.644836,428.616852 616.263977,434.966522 
	C616.114502,437.459412 616.114075,439.963593 616.113464,442.462646 
	C616.103882,478.794708 616.105408,515.126770 616.106567,551.458801 
	C616.106628,553.292053 616.108398,555.125549 616.140991,556.958435 
	C616.308594,566.372253 617.493347,568.327393 623.607178,569.322510 
	C632.031372,570.693787 637.129028,568.148804 639.508606,560.130615 
	C643.863770,545.456116 647.708069,530.628479 651.666870,515.838318 
	C659.499634,486.574982 667.318970,457.307770 674.991882,428.002411 
	C675.973328,424.253723 677.808228,422.707794 681.616394,422.902527 
	C685.439514,423.097961 689.295105,423.150208 693.109802,422.883942 
	C697.159973,422.601196 699.021851,424.266327 700.105408,428.157471 
	C708.407532,457.971680 716.895386,487.734161 725.320374,517.514221 
	C729.079529,530.801636 732.804932,544.098572 736.588074,557.379089 
	C738.716614,564.850952 738.982178,565.082642 749.180908,571.622864 
	C730.600830,572.505066 712.013916,572.361938 692.129333,572.354370 
	C694.719543,568.869019 697.019714,569.727478 698.930542,569.668518 
	C707.226257,569.412598 709.598938,566.779480 707.761841,558.886292 
	C704.933167,546.732544 701.727783,534.666687 698.859070,522.521851 
	C698.103516,519.323303 696.501465,518.213196 693.288025,518.248962 
	C681.623169,518.379089 669.955505,518.364746 658.290283,518.251587 
	C655.450317,518.224060 654.054871,519.309937 653.381287,522.016724 
	C650.247559,534.608154 646.883118,547.143250 643.856812,559.759766 
	C642.169983,566.791504 644.277527,569.187744 651.607483,569.601990 
	C654.741577,569.779114 657.930420,569.085571 661.001526,570.162964 
	C661.223572,570.240845 661.325256,570.661804 662.144897,572.021667 
	C632.765198,573.031067 604.060669,572.240356 575.322510,572.291748 
	C575.363464,569.971619 576.228455,569.871033 577.026306,569.703308 
	C586.166199,567.781372 587.555664,566.183289 587.624817,556.615479 
	C587.718811,543.616638 587.659241,530.616577 587.660095,517.617065 
	C587.661682,494.284546 587.659241,470.951996 587.658508,447.619476 
	C587.658447,445.008362 587.658569,442.397278 587.658569,439.786163 
	C583.810974,447.009705 582.391235,454.781799 580.469360,462.378693 
	C571.613220,497.386566 562.913757,532.434143 554.228760,567.484985 
	C553.402344,570.820312 552.052368,572.562561 548.179443,572.460327 
	C533.836975,572.081848 537.219849,574.043640 533.857361,561.432861 
	C523.137756,521.229126 512.747681,480.937592 502.221985,440.682159 
	C502.100311,440.216888 501.866211,439.781006 501.192780,438.113708 
	C501.192780,444.369995 501.191284,449.398071 501.193085,454.426147 
	C501.204895,487.424957 501.214600,520.423767 501.235352,553.422607 
	C501.236938,555.921814 501.157440,558.436584 501.398346,560.916748 
	C501.831696,565.379089 504.000641,568.032837 508.795044,568.929688 
	C512.866577,569.691345 517.231750,568.813660 521.155823,570.413513 
	C520.834167,572.433777 519.670715,572.358643 518.751221,572.334229 
	C501.944794,571.888794 485.099274,573.523926 468.324646,571.382629 
	C459.099243,570.205017 451.970337,565.687500 447.506866,557.563965 
	C440.123016,544.125427 434.195984,529.969666 427.642487,516.122009 
	C426.146149,512.960266 424.553253,509.843140 423.108521,506.658417 
	C421.981567,504.174103 419.924835,503.962097 417.667084,504.234863 
	C415.040436,504.552216 415.308990,506.638458 415.308716,508.442688 
	C415.306030,525.608704 415.255463,542.775330 415.380524,559.940552 
	C415.431885,566.989075 417.475525,568.917175 424.651398,569.628540 
	C425.902252,569.752625 427.377686,569.268372 428.196198,570.774414 
	C425.048706,573.041992 278.640167,573.196167 274.774780,570.897705 
	C275.978851,568.813293 278.038910,569.788208 279.684418,569.574280 
	C287.125366,568.607300 289.556458,566.072754 289.675262,558.500366 
	C289.795502,550.835693 289.735260,543.168030 289.735809,535.501648 
	C289.737976,504.669373 289.737213,473.837067 289.723206,443.004791 
	C289.721985,440.339661 289.808502,437.653412 289.518097,435.013947 
	C288.915405,429.535858 286.454376,427.025543 281.472412,426.403381 
	C275.634094,425.674286 271.296112,427.579712 269.590881,432.392609 
	C267.874329,437.237396 266.741058,442.299286 265.516235,447.306152 
	C255.749786,487.229218 245.976929,527.150879 236.354355,567.108704 
	C235.411102,571.025513 233.779221,573.027588 229.615982,572.410034 
	C228.637451,572.264893 227.618759,572.407288 226.619339,572.383789 
	C212.418488,572.050537 215.713608,574.938232 211.822906,560.719788 
	C200.533722,519.463806 189.570023,478.118652 178.522263,436.796814 
	C176.962753,430.963837 174.795685,425.959106 167.501663,426.074738 
	C166.871521,426.084747 166.250137,425.638245 166.167114,424.835297 
	C169.610870,422.024506 218.327621,422.045685 221.975189,425.100128 
	C219.391479,427.120148 216.473892,426.106567 213.821854,426.257690 
	C208.160416,426.580322 206.972366,427.516357 207.340729,433.197357 
	C207.957748,442.712921 211.109955,451.732300 213.303436,460.932343 
	C220.322525,490.372192 228.247589,519.596375 234.303665,549.265747 
	C234.567444,550.558044 235.017502,551.812317 235.800888,554.555115 
	C238.430420,544.130554 240.780014,535.053650 243.005981,525.946594 
	C249.683685,498.626190 256.326477,471.297211 262.939575,443.961121 
	C263.563354,441.382599 263.891174,438.731781 264.340240,436.111755 
	C265.564972,428.966187 263.637207,426.592896 256.410797,426.332764 
	C250.349518,426.114563 250.349518,426.114594 248.162689,424.565308 
	C249.260895,422.448730 251.292953,422.989929 253.009384,422.987946 
	C290.174133,422.945038 327.338928,422.961395 364.503632,422.907745 
	C367.529449,422.903381 369.835388,423.427490 369.951263,427.052216 
	C370.286407,437.537567 370.632629,448.022614 370.944885,458.508636 
	C370.976440,459.567627 370.570740,460.468506 369.388367,460.762329 
	C367.876099,460.463196 367.840881,459.238922 367.716583,458.077332 
	C367.397705,455.097717 367.020020,452.122681 366.780762,449.136566 
	C365.583466,434.193420 358.999908,427.392761 344.117615,426.475708 
	C336.810516,426.025391 329.456116,426.380096 322.124695,426.267365 
	C319.340393,426.224609 318.292236,427.407532 318.299988,430.159149 
	C318.355011,449.658295 318.378723,469.157928 318.276672,488.656708 
	C318.258850,492.062744 319.796112,492.921997 322.838043,492.898560 
	C334.003693,492.812653 345.170593,492.824463 356.336395,492.899170 
	C358.164459,492.911407 360.434845,492.094360 361.582550,494.595490 
	C360.373718,497.047729 358.107391,496.206421 356.277649,496.219177 
	C345.445282,496.294861 334.609528,496.377747 323.780365,496.172272 
	C319.802094,496.096802 318.197693,497.160065 318.237549,501.473267 
	C318.431793,522.470764 318.408051,543.471558 318.256927,564.469727 
	C318.228943,568.358398 319.380890,569.854431 323.372009,569.660156 
	C333.010925,569.190979 342.688263,570.247742 352.320587,568.825806 
	C355.814850,568.309998 359.181519,567.608032 362.640137,565.778870 
M415.304749,442.503357 
	C415.306061,460.165131 415.289368,477.826904 415.331726,495.488586 
	C415.336975,497.676605 414.609070,500.175415 418.230164,500.750702 
	C431.470886,502.854095 440.883789,496.641754 443.566559,483.483704 
	C446.047058,471.317657 446.446106,459.035980 444.499237,446.749268 
	C442.073273,431.438812 435.519775,426.071564 420.241089,426.212006 
	C416.664642,426.244904 414.983887,427.178192 415.257263,431.012604 
	C415.505493,434.493805 415.306671,438.006866 415.304749,442.503357 
M672.085205,452.432648 
	C666.607910,472.958435 661.130615,493.484253 655.515320,514.527161 
	C669.536499,514.527161 682.716492,514.527161 696.673706,514.527161 
	C689.961853,487.644928 683.400879,461.366974 676.626892,434.236084 
	C675.009644,440.665405 673.631165,446.145447 672.085205,452.432648 
z"/>
<path fill="#000000" opacity="1.000000" stroke="none" 
	d="
M827.021362,517.002502 
	C819.747253,509.120483 811.573669,502.747803 803.638977,496.166473 
	C781.208252,477.561676 787.783142,439.543488 808.326111,427.655670 
	C823.234863,419.028259 838.695129,418.425140 854.044556,426.422943 
	C861.666016,430.394073 866.278198,440.580017 864.659241,447.922882 
	C863.277283,454.190643 857.939636,458.286133 851.641479,458.147736 
	C848.602356,458.080933 848.685974,456.065887 848.664734,454.036560 
	C848.610596,448.861298 847.972351,443.749237 846.866272,438.709839 
	C845.388306,431.976105 842.278931,426.342651 834.960388,424.763580 
	C827.224243,423.094421 820.442505,425.371948 814.955505,431.097961 
	C805.040100,441.445190 802.727600,469.016449 817.612793,480.566345 
	C826.389465,487.376404 835.137390,494.420624 842.220154,503.183044 
	C854.422363,518.279236 854.171753,535.045044 847.182861,551.681335 
	C840.531372,567.514587 826.601074,573.525330 810.172180,574.326355 
	C801.993530,574.725159 793.891602,574.351746 786.122498,571.142578 
	C773.614014,565.975769 766.134949,552.405334 768.698181,539.155029 
	C769.923523,532.820801 775.495056,528.419861 781.897888,528.411133 
	C785.298584,528.406494 785.087036,530.676025 785.117859,532.823364 
	C785.222900,540.146057 785.313660,547.436951 787.126282,554.630676 
	C789.288025,563.209961 793.435791,569.631897 802.941589,571.041992 
	C812.876282,572.515747 821.478882,570.237793 827.884277,562.053284 
	C836.046387,551.624329 838.135986,529.141479 827.021362,517.002502 
z"/>
<path fill="#000000" opacity="1.000000" stroke="none" 
	d="
M743.102295,482.803406 
	C747.298401,480.462524 751.585327,478.982391 755.063354,476.021698 
	C758.159302,473.386353 760.863403,470.479767 761.613586,466.305969 
	C762.694153,460.294617 761.083740,455.614624 755.317261,452.544159 
	C750.568848,450.015839 746.483765,446.835358 745.450195,440.822113 
	C743.985901,432.303467 746.917297,425.655334 753.549866,423.734589 
	C761.114014,421.544067 768.231384,425.273895 771.308960,433.512939 
	C776.861816,448.378967 772.037354,470.698883 755.936035,480.038513 
	C752.785828,481.865814 749.420227,483.355194 746.053528,484.759613 
	C744.699402,485.324493 742.549500,486.206207 743.102295,482.803406 
z"/>
</svg>